<svg width="100" height="100" viewBox="0 0 100 100" fill="none" xmlns="http://www.w3.org/2000/svg">
<path d="M100 50C100 77.6142 77.6142 100 50 100C22.3858 100 0 77.6142 0 50C0 22.3858 22.3858 0 50 0C77.6142 0 100 22.3858 100 50Z" fill="white"/>
<path d="M15.2308 63.7265C15.4261 64.2477 15.2229 64.6742 14.6797 64.8777L8.2764 67.2765C7.72771 67.4821 7.29435 67.294 7.09907 66.7728C6.9038 66.2515 7.10693 65.825 7.65563 65.6195L14.0589 63.2207C14.6022 63.0172 15.0355 63.2052 15.2308 63.7265Z" fill="#4182BF"/>
<path d="M14.1609 60.8554C14.2736 61.3825 14.0332 61.7995 13.5519 61.9024C13.3112 61.9538 13.1062 61.9198 12.8276 61.7936L6.65465 58.9852L6.61454 58.9938L7.34601 62.4145C7.44526 62.8786 7.24334 63.2514 6.79642 63.3469C6.34949 63.4425 6.01402 63.1907 5.91355 62.7208L4.92846 58.114C4.81329 57.5754 5.06064 57.163 5.56487 57.0552C5.82844 56.9988 6.02935 57.0697 6.27443 57.1791L12.4241 59.9625L12.4699 59.9527L11.6968 56.3372C11.5951 55.8616 11.7982 55.4946 12.2451 55.399C12.6921 55.3035 13.0288 55.561 13.1292 56.0309L14.1609 60.8554Z" fill="#4182BF"/>
<path d="M12.8846 53.6636C12.8897 54.2202 12.5529 54.5515 11.9729 54.5568L5.13527 54.6197C4.54936 54.6251 4.20651 54.3001 4.20139 53.7435C4.19627 53.1869 4.53308 52.8556 5.119 52.8502L7.74389 52.8261L7.70885 49.0177L5.08396 49.0418C4.49805 49.0472 4.1552 48.7222 4.15008 48.1656C4.14496 47.609 4.48177 47.2777 5.06769 47.2723L11.9053 47.2094C12.4853 47.2041 12.8282 47.5291 12.8333 48.0857C12.8384 48.6423 12.5016 48.9736 11.9216 48.9789L9.16778 49.0042L9.20281 52.8127L11.9566 52.7873C12.5367 52.782 12.8795 53.107 12.8846 53.6636Z" fill="#4182BF"/>
<path d="M12.8432 45.3602C12.7351 45.9062 12.338 46.1621 11.7632 46.0483L5.27965 44.7647C4.71062 44.6521 4.44097 44.2642 4.54907 43.7181L5.3297 39.7751C5.42415 39.2981 5.75574 39.0412 6.20407 39.1299C6.6524 39.2187 6.85996 39.5883 6.76665 40.0596L6.15786 43.1347L8.15235 43.5296L8.73156 40.6039C8.8169 40.1728 9.12784 39.9298 9.54168 40.0117C9.95553 40.0936 10.1515 40.4311 10.065 40.8679L9.48584 43.7936L11.578 44.2078L12.1868 41.1327C12.2802 40.6614 12.6129 40.3987 13.0612 40.4875C13.5095 40.5763 13.7182 40.9401 13.6238 41.4172L12.8432 45.3602Z" fill="#4182BF"/>
<path d="M15.2955 36.6572C15.0381 37.2989 14.6027 37.5662 13.8378 37.5372L7.09305 37.3703C6.91897 37.3636 6.75579 37.3297 6.59807 37.2665C6.13581 37.0811 5.95996 36.6065 6.16715 36.0899C6.3438 35.6494 6.6497 35.469 7.15017 35.5119L13.5052 35.9266L13.5204 35.8885L8.62123 31.7964C8.23524 31.4838 8.14304 31.1627 8.31533 30.7331C8.51597 30.2328 8.96335 30.0145 9.4093 30.1933C9.55614 30.2522 9.69207 30.3383 9.8171 30.4515L14.853 35.0214C15.4205 35.5268 15.5506 36.0209 15.2955 36.6572Z" fill="#4182BF"/>
<path d="M18.5592 30.162C17.6007 31.6215 16.4036 32.1742 15.4432 31.9501C15.2837 31.9155 15.1272 31.8548 14.995 31.768C14.6032 31.5107 14.5205 31.0708 14.7714 30.6888C14.9708 30.3851 15.2202 30.2615 15.6494 30.291C16.3393 30.4146 16.9477 30.022 17.3915 29.3461C17.9126 28.5527 17.8843 27.7631 17.3652 27.4221C16.8999 27.1166 16.4167 27.276 15.6533 28.0434L15.0143 28.6963C13.8088 29.9235 12.6795 30.1703 11.6265 29.4788C10.3335 28.6296 10.2161 26.9403 11.2485 25.3682C12.0976 24.0752 13.2813 23.4575 14.4079 23.7487C14.5284 23.7788 14.6441 23.8267 14.7715 23.9103C15.1241 24.1419 15.1968 24.5542 14.9492 24.9313C14.7305 25.2644 14.4632 25.3832 14.0501 25.3503C13.3619 25.2349 12.8424 25.5456 12.4436 26.1529C11.9643 26.8827 11.9888 27.5927 12.5079 27.9336C12.9438 28.2199 13.4351 28.0588 14.1516 27.3307L14.7923 26.6859C16.0753 25.3834 17.1023 25.1325 18.1749 25.8369C19.556 26.7439 19.717 28.3988 18.5592 30.162Z" fill="#4182BF"/>
<path d="M21.3943 26.0561C21.0044 26.4534 20.532 26.4495 20.118 26.0432L15.2378 21.2536C14.8196 20.8432 14.8069 20.371 15.1968 19.9737C15.5867 19.5764 16.059 19.5803 16.4772 19.9907L18.5682 22.0428L18.6051 22.0051L18.3538 17.3006C18.3338 16.9362 18.4103 16.6993 18.6155 16.4902C18.9439 16.1556 19.4534 16.1467 19.7796 16.4669C19.9552 16.6392 20.0317 16.8374 20.043 17.1605L20.1534 20.5363L24.1301 20.8843C24.549 20.926 24.8109 21.0188 24.9824 21.1871C25.3253 21.5236 25.3344 22.0498 24.9937 22.3969C24.7393 22.6561 24.4707 22.7374 24.0269 22.6877L20.0499 22.3148L20.0904 23.5367L21.3575 24.7803C21.7715 25.1866 21.7842 25.6588 21.3943 26.0561Z" fill="#4182BF"/>
<path d="M31.6834 17.7409C29.4836 18.9452 27.3015 18.2293 26.0101 15.8702C24.7158 13.506 25.2857 11.2768 27.4855 10.0726C29.6801 8.8712 31.8702 9.5894 33.1644 11.9536C34.4559 14.3127 33.878 16.5395 31.6834 17.7409ZM30.9744 16.4458C32.1873 15.7817 32.426 14.3752 31.5763 12.823C30.7237 11.2657 29.4074 10.7038 28.1945 11.3678C26.9815 12.0318 26.7405 13.4463 27.5931 15.0036C28.4428 16.5558 29.7563 17.1126 30.9744 16.4458Z" fill="#1E1E1E"/>
<path d="M36.4839 15.2285C35.971 15.3739 35.5787 15.1501 35.4252 14.609L33.5395 7.95703C33.3861 7.41585 33.6139 7.01631 34.1551 6.8629C34.5046 6.76382 34.7813 6.83763 35.1413 7.11927L40.0524 11.0377L40.0975 11.025L38.8063 6.47007C38.6513 5.92326 38.8678 5.52692 39.3808 5.38149C39.8938 5.23607 40.2805 5.46142 40.4355 6.00823L42.326 12.6771C42.4762 13.207 42.2621 13.5905 41.7266 13.7423C41.3602 13.8461 41.0979 13.7804 40.7363 13.4931L35.8059 9.54967L35.7552 9.56405L37.0544 14.1471C37.2078 14.6883 36.9913 15.0846 36.4839 15.2285Z" fill="#1E1E1E"/>
<path d="M44.5072 12.9919C43.9529 13.0428 43.5951 12.7343 43.5416 12.1508L42.928 5.45816C42.8746 4.87467 43.1703 4.50629 43.7246 4.45547C44.2789 4.40465 44.6367 4.71312 44.6902 5.29661L45.2545 11.4524L48.242 11.1785C48.7205 11.1347 49.0665 11.3795 49.1083 11.8346C49.15 12.2897 48.86 12.5929 48.3757 12.6373L44.5072 12.9919Z" fill="#1E1E1E"/>
<path d="M51.1114 12.6369C50.5554 12.6095 50.2444 12.2539 50.273 11.6745L50.6098 4.8449C50.6386 4.25968 50.9831 3.93641 51.5391 3.96382C52.095 3.99124 52.406 4.34683 52.3772 4.93205L52.0404 11.7616C52.0118 12.341 51.6674 12.6643 51.1114 12.6369Z" fill="#1E1E1E"/>
<path d="M54.2218 12.9274C53.6996 12.8193 53.4551 12.4396 53.5691 11.8888L54.9704 5.11822C55.0844 4.56739 55.471 4.31832 56.0218 4.43232C56.3776 4.50595 56.5889 4.69927 56.778 5.11537L59.3228 10.8597L59.3687 10.8692L60.3283 6.2331C60.4435 5.67654 60.8186 5.42509 61.3407 5.53315C61.8629 5.64121 62.1017 6.01973 61.9865 6.57629L60.5816 13.3641C60.47 13.9034 60.103 14.1446 59.5579 14.0318C59.1849 13.9546 58.9827 13.7751 58.7948 13.3533L56.2444 7.57787L56.1928 7.56718L55.2273 12.232C55.1133 12.7828 54.7382 13.0343 54.2218 12.9274Z" fill="#1E1E1E"/>
<path d="M62.2758 14.631C61.7633 14.414 61.5937 13.9731 61.8222 13.4335L64.3996 7.34743C64.6258 6.81327 65.0605 6.62829 65.5731 6.84537L69.2743 8.41285C69.7222 8.6025 69.9061 8.97948 69.7279 9.40032C69.5497 9.82117 69.1455 9.94909 68.7031 9.76172L65.8165 8.53926L65.0236 10.4115L67.7699 11.5745C68.1746 11.7459 68.3492 12.0998 68.1847 12.4883C68.0202 12.8768 67.6499 13 67.2398 12.8263L64.4935 11.6632L63.6618 13.6272L66.5484 14.8497C66.9908 15.037 67.1802 15.4163 67.0019 15.8371C66.8237 16.258 66.425 16.3882 65.9771 16.1985L62.2758 14.631Z" fill="#1E1E1E"/>
<path d="M72.9494 20.8193C70.9909 19.2529 70.826 17.0201 72.5314 14.8878C74.2332 12.76 76.4742 12.4441 78.3732 13.9629C79.6087 14.951 80.1258 16.265 79.8176 17.5791C79.77 17.8262 79.6731 18.0413 79.5413 18.206C79.2522 18.5675 78.823 18.6069 78.457 18.3141C78.1458 18.0652 78.0588 17.7706 78.164 17.3295C78.4 16.4153 78.1309 15.6448 77.472 15.1178C76.4287 14.2834 75.057 14.6194 73.9444 16.0104C72.8172 17.4198 72.7853 18.8199 73.8424 19.6653C74.5379 20.2216 75.3121 20.323 76.1402 19.8974C76.5309 19.6997 76.8036 19.7153 77.0964 19.9495C77.4854 20.2606 77.544 20.7126 77.2512 21.0787C77.1268 21.2343 76.973 21.3514 76.7763 21.4567C75.6325 22.0424 74.1986 21.8184 72.9494 20.8193Z" fill="#1E1E1E"/>
<path d="M78.5812 26.3441C77.026 24.3767 77.3669 22.1056 79.4768 20.4378C81.5913 18.7663 83.8843 18.9554 85.4395 20.9228C86.991 22.8856 86.6491 25.165 84.5347 26.8364C82.4248 28.5042 80.1327 28.3069 78.5812 26.3441ZM79.7395 25.4284C80.5971 26.5132 82.0237 26.5133 83.4119 25.416C84.8047 24.315 85.1386 22.9233 84.2811 21.8385C83.4236 20.7537 81.9887 20.7526 80.5959 21.8536C79.2077 22.9509 78.8784 24.339 79.7395 25.4284Z" fill="#1E1E1E"/>
<path d="M82.161 30.8843C81.9042 30.3905 82.0543 29.9426 82.5742 29.6723L88.5369 26.5717C89.0568 26.3014 89.5097 26.4357 89.7665 26.9296C90.0233 27.4234 89.8732 27.8713 89.3533 28.1417L83.8688 30.9935L85.2529 33.6552C85.4745 34.0815 85.3789 34.4944 84.9734 34.7053C84.5679 34.9161 84.1776 34.7625 83.9532 34.331L82.161 30.8843Z" fill="#1E1E1E"/>
<path d="M84.943 36.554C84.7769 36.0227 85.0034 35.6082 85.5626 35.4334L91.9772 33.4282C92.5365 33.2534 92.9588 33.4652 93.1248 33.9965C93.2909 34.5278 93.0644 34.9423 92.5052 35.1171L86.6051 36.9615L87.5002 39.8248C87.6435 40.2834 87.4768 40.6732 87.0406 40.8095C86.6044 40.9459 86.2471 40.726 86.102 40.2619L84.943 36.554Z" fill="#1E1E1E"/>
<path d="M86.6862 42.625C86.6161 42.0728 86.912 41.7045 87.4933 41.6308L94.0501 40.7988C94.6255 40.7258 95.004 41.0085 95.074 41.5607L95.58 45.5483C95.6412 46.0308 95.4078 46.3793 94.9545 46.4368C94.5011 46.4944 94.1873 46.2093 94.1268 45.7327L93.7322 42.6228L91.7152 42.8788L92.0906 45.8375C92.1459 46.2734 91.9278 46.6023 91.5093 46.6554C91.0907 46.7085 90.7981 46.4504 90.742 46.0086L90.3666 43.0499L88.2508 43.3184L88.6454 46.4282C88.7058 46.9048 88.4732 47.2592 88.0198 47.3167C87.5664 47.3743 87.2534 47.095 87.1922 46.6126L86.6862 42.625Z" fill="#1E1E1E"/>
<path d="M87.0297 52.0387C87.1963 49.5188 88.9412 48.0839 91.6832 48.2651C94.3844 48.4436 95.9194 50.0953 95.7556 52.5743C95.6485 54.1938 94.8046 55.4123 93.7385 55.8175C93.5273 55.9033 93.3558 55.9214 93.1862 55.9102C92.736 55.8804 92.4466 55.5501 92.4772 55.0882C92.5019 54.714 92.6772 54.4613 93.0481 54.2686C93.8297 53.9033 94.2387 53.3138 94.2935 52.4835C94.3855 51.0921 93.3825 50.186 91.5876 50.0674C89.7576 49.9465 88.5822 50.7613 88.4894 52.1645C88.4133 53.3163 89.0678 54.1641 90.112 54.2683L90.2461 54.283L90.3273 53.0552C90.3551 52.6343 90.6137 52.3637 91.0172 52.3903C91.4206 52.417 91.6417 52.7135 91.6135 53.1403L91.4771 55.2041C91.4404 55.7595 91.0797 56.0645 90.5008 56.0263L90.3722 56.0178C88.2265 55.876 86.8724 54.4183 87.0297 52.0387Z" fill="#1E1E1E"/>
<path d="M86.6688 57.4058C86.8158 56.8689 87.2302 56.6422 87.7953 56.7968L94.1702 58.5417C94.7297 58.6948 94.9709 59.101 94.8239 59.6379L93.7628 63.5148C93.6344 63.9839 93.2853 64.2164 92.8445 64.0957C92.4036 63.9751 92.2231 63.5916 92.3499 63.1281L93.1775 60.1046L91.2164 59.5678L90.4291 62.4444C90.3131 62.8683 89.9855 63.0885 89.5786 62.9771C89.1717 62.8657 89.0004 62.5151 89.1179 62.0856L89.9053 59.209L87.8481 58.6459L87.0206 61.6695C86.8937 62.1329 86.543 62.371 86.1022 62.2504C85.6614 62.1297 85.4793 61.7518 85.6077 61.2828L86.6688 57.4058Z" fill="#1E1E1E"/>
<path d="M35.9922 25.1277C35.9922 24.5144 36.2189 23.981 36.6722 23.5277C37.1255 23.0744 37.6589 22.8477 38.2722 22.8477H62.9122C63.5255 22.8477 64.0589 23.0744 64.5122 23.5277C64.9655 23.981 65.1922 24.5144 65.1922 25.1277V26.7277C65.1922 27.341 64.9655 27.8744 64.5122 28.3277C64.0589 28.781 63.5255 29.0077 62.9122 29.0077L38.2722 29.0077C37.6589 29.0077 37.1255 28.781 36.6722 28.3277C36.2189 27.8744 35.9922 27.341 35.9922 26.7277V25.1277Z" fill="#1E1E1E"/>
<path d="M50.5922 52.8302C57.5255 52.8302 60.9922 50.2969 60.9922 45.2302C60.9922 40.1635 57.5255 37.6302 50.5922 37.6302C43.6589 37.6302 40.1922 40.1635 40.1922 45.2302C40.1922 50.2969 43.6589 52.8302 50.5922 52.8302ZM39.5522 54.9502C36.9122 52.5769 35.5922 49.3369 35.5922 45.2302C35.5922 41.1235 36.9122 37.8702 39.5522 35.4702C42.1922 33.0969 45.8722 31.9102 50.5922 31.9102C55.3122 31.9102 58.9922 33.0969 61.6322 35.4702C64.2722 37.8702 65.5922 41.1235 65.5922 45.2302C65.5922 49.3369 64.2722 52.5769 61.6322 54.9502C58.9922 57.3502 55.3122 58.5502 50.5922 58.5502C45.8722 58.5502 42.1922 57.3502 39.5522 54.9502Z" fill="#1E1E1E"/>
<path d="M35.5922 72.9958C35.5922 68.7825 36.8855 65.4358 39.4722 62.9558C42.0855 60.5025 45.7922 59.2758 50.5922 59.2758C55.3389 59.2758 59.0189 60.4625 61.6322 62.8358C64.2722 65.2358 65.5922 68.5825 65.5922 72.8758C65.5922 74.8492 65.4722 76.5025 65.2322 77.8358C65.1255 78.4758 64.8055 79.0092 64.2722 79.4358C63.7389 79.8625 63.1389 80.0758 62.4722 80.0758H62.1522C61.5922 80.0758 61.1522 79.8358 60.8322 79.3558C60.5122 78.9025 60.4189 78.4092 60.5522 77.8758C60.8989 76.5692 61.0722 75.1025 61.0722 73.4758C61.0722 70.8358 60.1655 68.7558 58.3522 67.2358C56.5389 65.7425 53.9522 64.9958 50.5922 64.9958C47.2589 64.9958 44.6722 65.7692 42.8322 67.3158C41.0189 68.8892 40.1122 70.9825 40.1122 73.5958C40.1122 75.3558 40.2722 76.8625 40.5922 78.1158C40.7255 78.6492 40.6322 79.1425 40.3122 79.5958C39.9922 80.0758 39.5522 80.3158 38.9922 80.3158H38.7122C38.0455 80.3158 37.4455 80.1025 36.9122 79.6758C36.4055 79.2758 36.0989 78.7425 35.9922 78.0758C35.7255 76.5558 35.5922 74.8625 35.5922 72.9958Z" fill="#1E1E1E"/>
<path d="M60.7019 27.5212C59.718 25.5788 62.255 23.7851 63.7582 25.3604L68.2692 30.0877C69.0665 30.9231 68.9357 32.2717 67.9927 32.9384L66.4343 34.0403C65.4914 34.7069 64.1763 34.3806 63.6545 33.3504L60.7019 27.5212Z" fill="#4182BF"/>
</svg>
